# xmcd CD database file
# Copyright (C) 1993-1998 Ti Kan
#
# Track frame offsets:
#  182
#  9575
#  28635
#  47520
#  60200
#  79642
#  93475
#  111282
#  130380
#  145172
#  164800
#  184815
#  195727
#
# Disc length: 2876 seconds
#
# Revision: 1
# Processed by: cddbd v1.4b41PL1 Copyright (c) Steve Scherf et al.
# Submitted via: KiC 2.1 - (C) 1996-1998 Alwin Hoogerdijk
#
DISCID=ac0b3a0d
DTITLE=Fox Family - Follow My Lead
DYEAR=1900
DGENRE=
TTITLE0=Paint the Town
TTITLE1=Jesse
TTITLE2=The Hobo and the Rose
TTITLE3=Cowboy Sweetheart
TTITLE4=Blood From a Stone
TTITLE5=Walt's Breakdown
TTITLE6=Widow Janie
TTITLE7=You're On My Mind
TTITLE8=Follow My Lead
TTITLE9=Lord Hear My Prayer
TTITLE10=Donnerville road
TTITLE11=How Blue
TTITLE12=I'm Your Papa
EXTD=
EXTT0=
EXTT1=
EXTT2=
EXTT3=
EXTT4=
EXTT5=
EXTT6=
EXTT7=
EXTT8=
EXTT9=
EXTT10=
EXTT11=
EXTT12=
PLAYORDER=
